<?xml version="1.0" encoding="utf-8"?>
<!-- Generator: Adobe Illustrator 19.2.0, SVG Export Plug-In . SVG Version: 6.00 Build 0)  -->
<svg version="1.1" id="Livello_1" xmlns="http://www.w3.org/2000/svg" xmlns:xlink="http://www.w3.org/1999/xlink" x="0px" y="0px"
	 width="512px" height="512px" viewBox="0 0 512 512" style="enable-background:new 0 0 512 512;" xml:space="preserve">
<style type="text/css">
	.st0{fill:#58402C;}
</style>
<title></title>
<g id="_1">
	<path class="st0" d="M441.1,166.5h-372c-8.3,0-15-6.7-15-15s6.7-15,15-15h372c8.3,0,15,6.7,15,15S449.4,166.5,441.1,166.5z"/>
	<path class="st0" d="M441.1,279.7h-372c-8.3,0-15-6.7-15-15s6.7-15,15-15h372c8.3,0,15,6.7,15,15S449.4,279.7,441.1,279.7z"/>
	<path class="st0" d="M441.1,392.9h-372c-8.3,0-15-6.7-15-15s6.7-15,15-15h372c8.3,0,15,6.7,15,15S449.4,392.9,441.1,392.9z"/>
</g>
</svg>
